<svg width="70" height="30" viewBox="0 0 70 30" fill="none" xmlns="http://www.w3.org/2000/svg">
<rect width="70" height="30" rx="4" fill="#FF3E3E"/>
<path d="M24.28 14.047C23.994 14.45 23.695 14.84 23.422 15.23C22.538 14.905 21.329 13.865 20.822 12.786C20.471 13.969 19.223 15.178 18.131 15.542L17.234 14.333C18.924 13.709 20.016 12.201 20.016 10.472V9.107H21.602V10.394C21.602 12.162 22.928 13.605 24.28 14.047ZM26.971 16.842H25.45V12.331H23.461V11.109H25.45V8.444H26.971V16.842ZM27.218 19.715H19.34V16.075H20.848V18.506H27.218V19.715ZM38.292 15.373H36.836V12.474H35.848V15.256H34.418V8.652H35.848V11.252H36.836V8.444H38.292V15.373ZM30.336 13.774C31.194 13.8 32.975 13.683 33.716 13.501L33.833 14.658C33.001 14.866 31.324 14.97 29.868 14.97H28.828V9.276H33.352V10.485H30.336V11.486H33.235V12.669H30.336V13.774ZM30.18 15.919H38.292V20.04H36.771V17.128H30.18V15.919Z" fill="white"/>
<path d="M49 18.6667L53.5089 14.4799C53.5941 14.4007 53.5941 14.2659 53.5089 14.1868L49 10" stroke="white" stroke-width="1.5" stroke-linecap="square"/>
</svg>
