<svg width="36" height="36" viewBox="0 0 36 36" fill="none" xmlns="http://www.w3.org/2000/svg">
<path d="M22.8333 26.7778C22.0926 26.7778 21.463 26.5185 20.9444 26C20.4259 25.4815 20.1667 24.8519 20.1667 24.1111C20.1667 24.0222 20.1889 23.8148 20.2333 23.4889L13.9889 19.8444C13.7519 20.0667 13.4778 20.2409 13.1667 20.3671C12.8556 20.4933 12.5222 20.5561 12.1667 20.5556C11.4259 20.5556 10.7963 20.2963 10.2778 19.7778C9.75926 19.2593 9.5 18.6296 9.5 17.8889C9.5 17.1481 9.75926 16.5185 10.2778 16C10.7963 15.4815 11.4259 15.2222 12.1667 15.2222C12.5222 15.2222 12.8556 15.2853 13.1667 15.4116C13.4778 15.5378 13.7519 15.7117 13.9889 15.9333L20.2333 12.2889C20.2037 12.1852 20.1853 12.0853 20.1782 11.9893C20.1711 11.8933 20.1673 11.7858 20.1667 11.6667C20.1667 10.9259 20.4259 10.2963 20.9444 9.77778C21.463 9.25926 22.0926 9 22.8333 9C23.5741 9 24.2037 9.25926 24.7222 9.77778C25.2407 10.2963 25.5 10.9259 25.5 11.6667C25.5 12.4074 25.2407 13.037 24.7222 13.5556C24.2037 14.0741 23.5741 14.3333 22.8333 14.3333C22.4778 14.3333 22.1444 14.2702 21.8333 14.144C21.5222 14.0178 21.2481 13.8439 21.0111 13.6222L14.7667 17.2667C14.7963 17.3704 14.815 17.4705 14.8227 17.5671C14.8304 17.6637 14.8339 17.771 14.8333 17.8889C14.8327 18.0068 14.8292 18.1144 14.8227 18.2116C14.8161 18.3087 14.7975 18.4086 14.7667 18.5111L21.0111 22.1556C21.2481 21.9333 21.5222 21.7594 21.8333 21.6338C22.1444 21.5081 22.4778 21.445 22.8333 21.4444C23.5741 21.4444 24.2037 21.7037 24.7222 22.2222C25.2407 22.7407 25.5 23.3704 25.5 24.1111C25.5 24.8519 25.2407 25.4815 24.7222 26C24.2037 26.5185 23.5741 26.7778 22.8333 26.7778Z" fill="#D3D3D3"/>
</svg>
