<svg width="70" height="30" viewBox="0 0 70 30" fill="none" xmlns="http://www.w3.org/2000/svg">
<rect x="0.5" y="0.5" width="69" height="29" rx="3.5" fill="white" stroke="#E4E4E4"/>
<path d="M28.322 17.817C28.322 19.169 26.801 20.014 24.279 20.014C21.77 20.014 20.262 19.169 20.262 17.817C20.262 16.452 21.77 15.581 24.279 15.581C26.801 15.581 28.322 16.452 28.322 17.817ZM28.231 15.555H26.788V12.552H25.852V15.152H24.422V8.652H25.852V11.343H26.788V8.444H28.231V15.555ZM23.954 14.684C22.953 14.918 21.029 15.022 19.677 15.022H18.871V11.46H21.744V10.407H18.832V9.198H23.265V12.63H20.392V13.813C21.354 13.813 23.005 13.722 23.785 13.54C23.837 13.917 23.889 14.307 23.954 14.684ZM24.279 16.777C22.784 16.777 21.822 17.141 21.822 17.817C21.822 18.467 22.784 18.818 24.279 18.818C25.826 18.818 26.749 18.454 26.749 17.817C26.749 17.141 25.826 16.777 24.279 16.777ZM39.084 17.635C39.084 19.013 37.602 19.897 35.054 19.897C32.532 19.897 31.063 19.013 31.063 17.635C31.063 16.218 32.532 15.321 35.054 15.321C37.602 15.321 39.084 16.218 39.084 17.635ZM35.652 9.302C35.639 12.461 33.533 14.827 30.465 15.698L29.711 14.502C30.946 14.216 32.194 13.54 33.026 12.565L30.023 12.877L29.763 11.629L33.78 11.369C33.871 11.122 33.962 10.849 34.014 10.563H30.283V9.302H35.652ZM39.032 15.217H37.498V8.444H39.032V15.217ZM35.054 16.543C33.533 16.543 32.61 16.946 32.61 17.635C32.61 18.285 33.533 18.675 35.054 18.675C36.627 18.675 37.524 18.285 37.524 17.635C37.524 16.946 36.627 16.543 35.054 16.543ZM46.5831 17.492H45.0751V15.438H40.4861V14.229H50.9511V15.438H46.5831V17.492ZM45.7251 10.927C45.1401 12.253 43.2551 13.306 41.5781 13.553L40.9411 12.357C42.8781 12.162 44.9451 10.914 44.9451 9.198V8.847H46.5181V9.198C46.5181 10.914 48.8711 12.279 50.5351 12.37L49.8851 13.566C48.3381 13.332 46.3101 12.253 45.7251 10.927ZM49.7421 19.715H41.8251V16.413H43.3461V18.519H49.7421V19.715Z" fill="#999999"/>
</svg>
