<svg width="79" height="30" viewBox="0 0 79 30" fill="none" xmlns="http://www.w3.org/2000/svg">
<rect x="0.5" y="0.5" width="78" height="29" rx="3.5" fill="white" stroke="#E4E4E4"/>
<path d="M18.45 8.444H19.958V20.027H18.45V8.444ZM17.436 15.789L17.605 16.998C16.383 17.245 14.225 17.375 12.262 17.375H11.04V12.565H14.797V10.641H10.988V9.432H16.331V13.774H12.548V16.127C13.653 16.127 15.954 16.062 17.436 15.789ZM30.642 13.826H22.699V8.99H24.207V10.303H29.121V8.977H30.642V13.826ZM25.403 20.04H23.882V16.166H21.438V14.957H31.903V16.166H29.407V20.04H27.886V16.166H25.403V20.04ZM29.121 12.617V11.486H24.207V12.617H29.121ZM46.4001 12.162H44.7621V14.086H43.2151V8.444H44.7621V10.914H46.4001V12.162ZM41.4601 14.047H36.0391V9.237H41.4601V14.047ZM39.9521 12.864V10.407H37.5471V12.864H39.9521ZM40.3421 19.338C39.4711 19.559 38.0151 19.741 36.6501 19.741V15.36H38.1061V18.519C38.7561 18.493 39.6141 18.363 40.1991 18.22L40.3421 19.338ZM44.1901 15.568H41.4991V14.541H44.1901V15.568ZM45.7501 16.998H39.9911V15.945H45.7501V16.998ZM44.9441 18.688C44.9441 19.663 43.9691 20.17 42.8121 20.17C41.6551 20.17 40.6931 19.663 40.6931 18.688C40.6931 17.726 41.6551 17.219 42.8121 17.219C43.9691 17.219 44.9441 17.726 44.9441 18.688ZM43.5921 18.688C43.5921 18.363 43.2281 18.22 42.8121 18.22C42.3961 18.22 42.0451 18.363 42.0451 18.688C42.0451 19.026 42.3961 19.156 42.8121 19.156C43.2281 19.156 43.5921 19.026 43.5921 18.688ZM57.2142 15.49H46.7492V14.268H57.2142V15.49ZM56.0052 19.715H48.0362V16.335H49.5572V18.519H56.0052V19.715ZM56.0312 11.187C56.0312 12.539 54.5232 13.527 51.9882 13.527C49.4402 13.527 47.9582 12.539 47.9582 11.187C47.9582 9.861 49.4402 8.873 51.9752 8.873C54.5232 8.873 56.0312 9.861 56.0312 11.187ZM54.4582 11.213C54.4582 10.511 53.5092 10.043 51.9752 10.043C50.4802 10.043 49.5182 10.511 49.5182 11.213C49.5182 11.889 50.4802 12.344 51.9752 12.344C53.5092 12.344 54.4582 11.889 54.4582 11.213ZM63.8942 17.492H62.3862V15.438H57.7972V14.229H68.2622V15.438H63.8942V17.492ZM63.0362 10.927C62.4512 12.253 60.5662 13.306 58.8892 13.553L58.2522 12.357C60.1892 12.162 62.2562 10.914 62.2562 9.198V8.847H63.8292V9.198C63.8292 10.914 66.1822 12.279 67.8462 12.37L67.1962 13.566C65.6492 13.332 63.6212 12.253 63.0362 10.927ZM67.0532 19.715H59.1362V16.413H60.6572V18.519H67.0532V19.715Z" fill="#999999"/>
</svg>
