<svg width="79" height="30" viewBox="0 0 79 30" fill="none" xmlns="http://www.w3.org/2000/svg">
<rect x="0.5" y="0.5" width="78" height="29" rx="3.5" fill="white" stroke="#E4E4E4"/>
<path d="M19.659 17.869C19.659 19.208 18.19 20.027 15.629 20.027C13.068 20.027 11.586 19.208 11.586 17.869C11.586 16.556 13.068 15.737 15.616 15.737C18.19 15.737 19.659 16.556 19.659 17.869ZM20.361 12.058L19.711 13.254C18.086 13.111 16.279 12.214 15.629 11.057C15.057 12.24 13.367 13.124 11.534 13.267L10.91 12.084C12.665 11.993 14.251 11.213 14.706 10.082H11.443V8.886H19.828V10.082H16.578C17.085 11.226 18.866 12.006 20.361 12.058ZM20.855 15.217H10.39V13.995H14.836V12.539H16.357V13.995H20.855V15.217ZM18.099 17.882C18.099 17.297 17.124 16.933 15.616 16.933C14.121 16.933 13.159 17.297 13.159 17.882C13.159 18.467 14.121 18.831 15.616 18.831C17.124 18.831 18.099 18.467 18.099 17.882ZM30.915 15.568H29.238V17.375H31.903V18.584H21.438V17.375H24.077V15.568H22.777V11.733H29.069V10.394H22.712V9.185H30.577V12.942H24.285V14.346H30.915V15.568ZM25.559 15.568V17.375H27.769V15.568H25.559ZM43.7611 8.444H45.2691V14.97H43.7611V8.444ZM45.2691 19.884H37.6511V15.581H45.2691V19.884ZM43.7611 18.701V16.751H39.1721V18.701H43.7611ZM36.1171 11.863C36.1171 10.264 37.4561 9.068 39.1721 9.068C40.8881 9.068 42.2401 10.238 42.2401 11.863C42.2401 13.501 40.9141 14.554 39.1721 14.554C37.4691 14.554 36.1171 13.501 36.1171 11.863ZM37.5731 11.85C37.5731 12.747 38.2101 13.384 39.1721 13.384C40.0951 13.384 40.7841 12.734 40.7841 11.85C40.7841 10.992 40.1731 10.329 39.1721 10.329C38.1971 10.329 37.5731 11.018 37.5731 11.85ZM57.4482 12.5H55.8102V15.204H54.2632V8.444H55.8102V11.265H57.4482V12.5ZM48.2052 15.776H55.8102V20.04H54.2762V16.985H48.2052V15.776ZM52.5212 14.541H47.0352V9.146H48.5432V10.771H50.9872V9.133H52.5212V14.541ZM50.9872 13.345V11.954H48.5432V13.345H50.9872ZM63.8942 17.492H62.3862V15.438H57.7972V14.229H68.2622V15.438H63.8942V17.492ZM63.0362 10.927C62.4512 12.253 60.5662 13.306 58.8892 13.553L58.2522 12.357C60.1892 12.162 62.2562 10.914 62.2562 9.198V8.847H63.8292V9.198C63.8292 10.914 66.1822 12.279 67.8462 12.37L67.1962 13.566C65.6492 13.332 63.6212 12.253 63.0362 10.927ZM67.0532 19.715H59.1362V16.413H60.6572V18.519H67.0532V19.715Z" fill="#999999"/>
</svg>
