<svg width="38" height="38" viewBox="0 0 38 38" fill="none" xmlns="http://www.w3.org/2000/svg">
<g filter="url(#filter0_d_1145_8411)">
<rect x="4" y="3" width="30" height="30" rx="2" fill="#FF3E3E" shape-rendering="crispEdges"/>
<path d="M11.563 25.038V18.394H9.308V17.657H14.676V18.394H12.421V25.038H11.563ZM18.7564 25.159C16.7544 25.159 15.5334 23.85 15.5334 21.43V21.254C15.5334 18.933 16.7544 17.536 18.7894 17.536C20.7804 17.536 22.0014 18.845 22.0014 21.265V21.441C22.0014 23.762 20.7804 25.159 18.7564 25.159ZM18.7784 24.444C20.3074 24.444 21.0664 23.245 21.0664 21.606V21.265C21.0664 19.472 20.4174 18.262 18.7454 18.251C17.2274 18.251 16.4684 19.439 16.4684 21.089V21.43C16.4684 23.212 17.1284 24.444 18.7784 24.444ZM23.4929 25.038V17.657H25.7699C27.4309 17.657 28.2339 18.449 28.2339 19.835C28.2339 21.287 27.2879 22.079 25.8799 22.079H24.3729V25.038H23.4929ZM24.3729 21.353H25.7039C26.8479 21.353 27.2989 20.88 27.2989 19.89C27.2989 18.845 26.8809 18.394 25.6819 18.394H24.3729V21.353Z" fill="white"/>
<path d="M19 10.5L22.4641 15H15.5359L19 10.5Z" fill="white"/>
</g>
<defs>
<filter id="filter0_d_1145_8411" x="0" y="0" width="38" height="38" filterUnits="userSpaceOnUse" color-interpolation-filters="sRGB">
<feFlood flood-opacity="0" result="BackgroundImageFix"/>
<feColorMatrix in="SourceAlpha" type="matrix" values="0 0 0 0 0 0 0 0 0 0 0 0 0 0 0 0 0 0 127 0" result="hardAlpha"/>
<feOffset dy="1"/>
<feGaussianBlur stdDeviation="2"/>
<feComposite in2="hardAlpha" operator="out"/>
<feColorMatrix type="matrix" values="0 0 0 0 0 0 0 0 0 0 0 0 0 0 0 0 0 0 0.25 0"/>
<feBlend mode="normal" in2="BackgroundImageFix" result="effect1_dropShadow_1145_8411"/>
<feBlend mode="normal" in="SourceGraphic" in2="effect1_dropShadow_1145_8411" result="shape"/>
</filter>
</defs>
</svg>
