<svg width="56" height="23" viewBox="0 0 56 23" fill="none" xmlns="http://www.w3.org/2000/svg">
<rect x="0.5" y="0.5" width="55" height="22" rx="1.5" fill="#F8F8F8"/>
<rect x="0.5" y="0.5" width="55" height="22" rx="1.5" stroke="#F8F8F8"/>
<path d="M12.4736 12.674H11.6376V5.656H12.4736V12.674ZM12.7156 14.951H6.20363V11.981H7.03963V14.258H12.7156V14.951ZM7.41363 6.294C8.87663 6.294 10.0096 7.262 10.0096 8.692C10.0096 10.122 8.88763 11.079 7.42463 11.079C5.96163 11.079 4.82863 10.133 4.82863 8.703C4.82863 7.273 5.96163 6.294 7.41363 6.294ZM7.41363 7.02C6.40163 7.02 5.63163 7.713 5.63163 8.692C5.63163 9.66 6.41263 10.342 7.42463 10.342C8.48063 10.342 9.21763 9.66 9.21763 8.703C9.21763 7.713 8.48063 7.02 7.41363 7.02ZM22.0132 15.27H21.1772V5.656H22.0132V15.27ZM19.1862 6.679C19.1422 9.803 17.2282 12.19 14.7422 13.367L14.2582 12.707C16.6892 11.64 18.1192 9.55 18.2952 7.383H14.6102V6.679H19.1862ZM28.4728 13.279H27.6368V11.321H23.6988V10.617H32.3778V11.321H28.4728V13.279ZM31.9268 9.044L31.5418 9.748C29.9468 9.462 28.4728 8.373 28.0328 7.46C27.6588 8.373 26.2178 9.451 24.5678 9.748L24.1828 9.055C25.7778 8.879 27.6148 7.702 27.6148 6.36V5.964H28.4838V6.36C28.4838 7.713 30.4638 8.89 31.9268 9.044ZM31.3768 14.973H24.7988V12.289H25.6348V14.28H31.3768V14.973Z" fill="#888888"/>
<line x1="38" y1="7.5" x2="48" y2="7.5" stroke="#888888"/>
<line x1="38" y1="10.5" x2="48" y2="10.5" stroke="#888888"/>
<line x1="38" y1="14.5" x2="48" y2="14.5" stroke="#888888"/>
<circle cx="45.5" cy="7.5" r="1" fill="white" stroke="#888888"/>
<circle cx="40.5" cy="10.5" r="1" fill="white" stroke="#888888"/>
<circle cx="45.5" cy="14.5" r="1" fill="white" stroke="#888888"/>
</svg>
