<svg width="36" height="36" viewBox="0 0 36 36" fill="none" xmlns="http://www.w3.org/2000/svg">
<path fill-rule="evenodd" clip-rule="evenodd" d="M19.7099 21.7219C18.848 22.2349 17.841 22.5296 16.7652 22.5296C13.5812 22.5296 11 19.9485 11 16.7648C11 13.581 13.5812 11 16.7652 11C19.9492 11 22.5303 13.581 22.5303 16.7648C22.5303 17.841 22.2353 18.8484 21.7219 19.7105L24.5833 22.5718C25.1389 23.1272 25.1389 24.0279 24.5833 24.5834C24.0278 25.1389 23.1271 25.1389 22.5715 24.5834L19.7099 21.7219ZM20.3131 16.7602C20.3131 18.7194 18.7248 20.3076 16.7654 20.3076C14.806 20.3076 13.2176 18.7194 13.2176 16.7602C13.2176 14.8009 14.806 13.2126 16.7654 13.2126C18.7248 13.2126 20.3131 14.8009 20.3131 16.7602Z" fill="#888888"/>
</svg>
