<svg width="24" height="24" viewBox="0 0 24 24" fill="none" xmlns="http://www.w3.org/2000/svg">
<path d="M12.5 20C16.6423 20 20 16.6423 20 12.5C20 8.35775 16.6423 5 12.5 5C8.35775 5 5 8.35775 5 12.5C5 16.6423 8.35775 20 12.5 20Z" stroke="#999999" stroke-width="2" stroke-linecap="round" stroke-linejoin="round"/>
<path d="M12.5 12.125C12.9973 12.125 13.4742 11.9275 13.8258 11.5758C14.1775 11.2242 14.375 10.7473 14.375 10.25C14.375 9.75272 14.1775 9.27581 13.8258 8.92417C13.4742 8.57254 12.9973 8.375 12.5 8.375C12.0027 8.375 11.5258 8.57254 11.1742 8.92417C10.8225 9.27581 10.625 9.75272 10.625 10.25C10.625 10.7473 10.8225 11.2242 11.1742 11.5758C11.5258 11.9275 12.0027 12.125 12.5 12.125Z" stroke="#999999" stroke-width="2" stroke-linejoin="round"/>
<path d="M7.25824 17.8745C7.38724 15.9204 9.01324 14.375 11 14.375H14C15.9841 14.375 17.6086 15.9163 17.7414 17.8666" stroke="#999999" stroke-width="2" stroke-linecap="round" stroke-linejoin="round"/>
</svg>
