<svg width="36" height="36" viewBox="0 0 36 36" fill="none" xmlns="http://www.w3.org/2000/svg">
<path d="M23.8333 26.7778C23.0926 26.7778 22.463 26.5185 21.9444 26C21.4259 25.4815 21.1667 24.8519 21.1667 24.1111C21.1667 24.0222 21.1889 23.8148 21.2333 23.4889L14.9889 19.8444C14.7519 20.0667 14.4778 20.2409 14.1667 20.3671C13.8556 20.4933 13.5222 20.5561 13.1667 20.5556C12.4259 20.5556 11.7963 20.2963 11.2778 19.7778C10.7593 19.2593 10.5 18.6296 10.5 17.8889C10.5 17.1481 10.7593 16.5185 11.2778 16C11.7963 15.4815 12.4259 15.2222 13.1667 15.2222C13.5222 15.2222 13.8556 15.2853 14.1667 15.4116C14.4778 15.5378 14.7519 15.7117 14.9889 15.9333L21.2333 12.2889C21.2037 12.1852 21.1853 12.0853 21.1782 11.9893C21.1711 11.8933 21.1673 11.7858 21.1667 11.6667C21.1667 10.9259 21.4259 10.2963 21.9444 9.77778C22.463 9.25926 23.0926 9 23.8333 9C24.5741 9 25.2037 9.25926 25.7222 9.77778C26.2407 10.2963 26.5 10.9259 26.5 11.6667C26.5 12.4074 26.2407 13.037 25.7222 13.5556C25.2037 14.0741 24.5741 14.3333 23.8333 14.3333C23.4778 14.3333 23.1444 14.2702 22.8333 14.144C22.5222 14.0178 22.2481 13.8439 22.0111 13.6222L15.7667 17.2667C15.7963 17.3704 15.815 17.4705 15.8227 17.5671C15.8304 17.6637 15.8339 17.771 15.8333 17.8889C15.8327 18.0068 15.8292 18.1144 15.8227 18.2116C15.8161 18.3087 15.7975 18.4086 15.7667 18.5111L22.0111 22.1556C22.2481 21.9333 22.5222 21.7594 22.8333 21.6338C23.1444 21.5081 23.4778 21.445 23.8333 21.4444C24.5741 21.4444 25.2037 21.7037 25.7222 22.2222C26.2407 22.7407 26.5 23.3704 26.5 24.1111C26.5 24.8519 26.2407 25.4815 25.7222 26C25.2037 26.5185 24.5741 26.7778 23.8333 26.7778Z" fill="#555555"/>
</svg>
