<svg width="48" height="23" viewBox="0 0 48 23" fill="none" xmlns="http://www.w3.org/2000/svg">
<rect x="0.5" y="0.5" width="47" height="22" rx="1.5" fill="#F8F8F8"/>
<rect x="0.5" y="0.5" width="47" height="22" rx="1.5" stroke="#E4E4E4"/>
<path d="M14.8204 13.944C14.8204 15.066 13.6544 15.77 11.5864 15.77C9.52942 15.77 8.37442 15.066 8.37442 13.944C8.37442 12.811 9.52942 12.107 11.5864 12.107C13.6544 12.107 14.8204 12.811 14.8204 13.944ZM7.14242 7.663V6.959H12.3454V7.663H10.1784C10.1784 7.85 10.1784 8.07 10.1894 8.18C10.2664 9.489 11.4984 10.534 12.6754 10.886L12.1804 11.557C11.1794 11.161 10.1454 10.259 9.74942 9.39C9.48542 10.292 8.33042 11.447 7.29642 11.898L6.84542 11.227C8.05542 10.765 9.27642 9.544 9.32042 8.18C9.33142 8.07 9.33142 7.839 9.33142 7.663H7.14242ZM11.5864 12.811C10.1124 12.811 9.22142 13.218 9.22142 13.944C9.22142 14.659 10.1124 15.066 11.5864 15.066C13.0934 15.066 13.9624 14.659 13.9624 13.944C13.9624 13.218 13.0934 12.811 11.5864 12.811ZM13.9074 9.357H11.9714V8.653H13.9074V6.156H14.7434V12.129H13.9074V9.357ZM24.646 15.704H18.101V13.361H23.458V12.404H18.09V11.711H24.294V14.021H18.937V15H24.646V15.704ZM24.294 11.282H23.458V9.819H21.742V9.137H23.458V8.081H21.742V7.399H23.458V6.156H24.294V11.282ZM21.478 9.984L21.588 10.666C20.664 10.82 19.443 10.875 18.178 10.875H16.803V8.29H20.158V7.256H16.792V6.563H20.994V8.972H17.65V10.193H18.585C19.575 10.193 20.565 10.149 21.478 9.984Z" fill="#888888"/>
<line x1="30" y1="7.5" x2="40" y2="7.5" stroke="#888888"/>
<line x1="30" y1="10.5" x2="40" y2="10.5" stroke="#888888"/>
<line x1="30" y1="14.5" x2="40" y2="14.5" stroke="#888888"/>
<circle cx="37.5" cy="7.5" r="1" fill="#F8F8F8" stroke="#888888"/>
<circle cx="32.5" cy="10.5" r="1" fill="#F8F8F8" stroke="#888888"/>
<circle cx="37.5" cy="14.5" r="1" fill="#F8F8F8" stroke="#888888"/>
</svg>
