<svg width="37" height="36" viewBox="0 0 37 36" fill="none" xmlns="http://www.w3.org/2000/svg">
<g filter="url(#filter0_i_1065_5237)">
<path d="M23.5 28C22.6667 28 21.9583 27.7083 21.375 27.125C20.7917 26.5417 20.5 25.8333 20.5 25C20.5 24.9 20.525 24.6667 20.575 24.3L13.55 20.2C13.2833 20.45 12.975 20.646 12.625 20.788C12.275 20.93 11.9 21.0007 11.5 21C10.6667 21 9.95833 20.7083 9.375 20.125C8.79167 19.5417 8.5 18.8333 8.5 18C8.5 17.1667 8.79167 16.4583 9.375 15.875C9.95833 15.2917 10.6667 15 11.5 15C11.9 15 12.275 15.071 12.625 15.213C12.975 15.355 13.2833 15.5507 13.55 15.8L20.575 11.7C20.5417 11.5833 20.521 11.471 20.513 11.363C20.505 11.255 20.5007 11.134 20.5 11C20.5 10.1667 20.7917 9.45833 21.375 8.875C21.9583 8.29167 22.6667 8 23.5 8C24.3333 8 25.0417 8.29167 25.625 8.875C26.2083 9.45833 26.5 10.1667 26.5 11C26.5 11.8333 26.2083 12.5417 25.625 13.125C25.0417 13.7083 24.3333 14 23.5 14C23.1 14 22.725 13.929 22.375 13.787C22.025 13.645 21.7167 13.4493 21.45 13.2L14.425 17.3C14.4583 17.4167 14.4793 17.5293 14.488 17.638C14.4967 17.7467 14.5007 17.8673 14.5 18C14.4993 18.1327 14.4953 18.2537 14.488 18.363C14.4807 18.4723 14.4597 18.5847 14.425 18.7L21.45 22.8C21.7167 22.55 22.025 22.3543 22.375 22.213C22.725 22.0717 23.1 22.0007 23.5 22C24.3333 22 25.0417 22.2917 25.625 22.875C26.2083 23.4583 26.5 24.1667 26.5 25C26.5 25.8333 26.2083 26.5417 25.625 27.125C25.0417 27.7083 24.3333 28 23.5 28Z" fill="#D3D3D3"/>
</g>
<defs>
<filter id="filter0_i_1065_5237" x="8.5" y="8" width="18.5" height="20.5" filterUnits="userSpaceOnUse" color-interpolation-filters="sRGB">
<feFlood flood-opacity="0" result="BackgroundImageFix"/>
<feBlend mode="normal" in="SourceGraphic" in2="BackgroundImageFix" result="shape"/>
<feColorMatrix in="SourceAlpha" type="matrix" values="0 0 0 0 0 0 0 0 0 0 0 0 0 0 0 0 0 0 127 0" result="hardAlpha"/>
<feOffset dx="0.5" dy="0.5"/>
<feGaussianBlur stdDeviation="0.25"/>
<feComposite in2="hardAlpha" operator="arithmetic" k2="-1" k3="1"/>
<feColorMatrix type="matrix" values="0 0 0 0 0 0 0 0 0 0 0 0 0 0 0 0 0 0 0.25 0"/>
<feBlend mode="normal" in2="shape" result="effect1_innerShadow_1065_5237"/>
</filter>
</defs>
</svg>
