<svg width="37" height="36" viewBox="0 0 37 36" fill="none" xmlns="http://www.w3.org/2000/svg">
<path d="M24.4545 13.1712H19.7273V19.3856C19.7273 19.5675 19.6507 19.7419 19.5143 19.8705C19.3779 19.9991 19.1929 20.0713 19 20.0713C18.8071 20.0713 18.6221 19.9991 18.4857 19.8705C18.3494 19.7419 18.2727 19.5675 18.2727 19.3856V13.1712H13.5455C12.8706 13.1719 12.2236 13.425 11.7463 13.8749C11.2691 14.3249 11.0007 14.9349 11 15.5713V23.8C11.0007 24.4363 11.2691 25.0463 11.7463 25.4963C12.2236 25.9462 12.8706 26.1993 13.5455 26.2H24.4545C25.1294 26.1993 25.7764 25.9462 26.2537 25.4963C26.7309 25.0463 26.9993 24.4363 27 23.8V15.5713C26.9993 14.9349 26.7309 14.3249 26.2537 13.8749C25.7764 13.425 25.1294 13.1719 24.4545 13.1712ZM19.7273 9.34101L22.1223 11.5988C22.2598 11.7219 22.4429 11.7896 22.6325 11.7873C22.8222 11.785 23.0033 11.713 23.1375 11.5865C23.2716 11.4601 23.348 11.2892 23.3504 11.1104C23.3528 10.9316 23.2811 10.759 23.1505 10.6293L19.5141 7.20069C19.3777 7.07218 19.1928 7 19 7C18.8072 7 18.6223 7.07218 18.4859 7.20069L14.8495 10.6293C14.7189 10.759 14.6472 10.9316 14.6496 11.1104C14.652 11.2892 14.7284 11.4601 14.8625 11.5865C14.9967 11.713 15.1778 11.785 15.3675 11.7873C15.5571 11.7896 15.7402 11.7219 15.8777 11.5988L18.2727 9.34101V13.1712H19.7273V9.34101Z" fill="#D3D3D3"/>
</svg>
