<svg width="24" height="24" viewBox="0 0 24 24" fill="none" xmlns="http://www.w3.org/2000/svg">
<path fill-rule="evenodd" clip-rule="evenodd" d="M13.7103 15.316C12.8484 15.829 11.8413 16.1237 10.7655 16.1237C7.58128 16.1237 5 13.5426 5 10.3587C5 7.17481 7.58128 4.59375 10.7655 4.59375C13.9496 4.59375 16.5309 7.17481 16.5309 10.3587C16.5309 11.435 16.2359 12.4424 15.7224 13.3045L18.584 16.1659C19.1396 16.7214 19.1396 17.6221 18.584 18.1776C18.0285 18.7331 17.1277 18.7331 16.5721 18.1776L13.7103 15.316ZM14.3136 10.3541C14.3136 12.3134 12.7252 13.9017 10.7657 13.9017C8.80617 13.9017 7.21769 12.3134 7.21769 10.3541C7.21769 8.39473 8.80617 6.80639 10.7657 6.80639C12.7252 6.80639 14.3136 8.39473 14.3136 10.3541Z" fill="white"/>
</svg>
