<svg width="70" height="30" viewBox="0 0 70 30" fill="none" xmlns="http://www.w3.org/2000/svg">
<rect x="0.5" y="0.5" width="69" height="29" rx="3.5" fill="white" stroke="#E4E4E4"/>
<path d="M27.958 16.842H26.45V8.444H27.958V16.842ZM28.218 19.715H20.184V16.01H21.718V18.519H28.218V19.715ZM18.754 12.162C18.754 10.524 19.989 9.302 21.887 9.302C23.798 9.302 25.02 10.524 25.02 12.162C25.02 13.826 23.798 15.009 21.887 15.009C19.989 15.009 18.754 13.826 18.754 12.162ZM20.314 12.162C20.314 13.085 20.912 13.761 21.887 13.761C22.888 13.761 23.473 13.085 23.473 12.162C23.473 11.278 22.888 10.602 21.887 10.602C20.912 10.602 20.314 11.278 20.314 12.162ZM39.019 20.027H37.498V8.444H39.019V20.027ZM35.457 9.653C35.366 13.15 33.819 16.01 30.283 17.934L29.347 16.79C31.882 15.633 33.611 13.215 33.819 10.914H30.049V9.653H35.457ZM46.5831 17.492H45.0751V15.438H40.4861V14.229H50.9511V15.438H46.5831V17.492ZM45.7251 10.927C45.1401 12.253 43.2551 13.306 41.5781 13.553L40.9411 12.357C42.8781 12.162 44.9451 10.914 44.9451 9.198V8.847H46.5181V9.198C46.5181 10.914 48.8711 12.279 50.5351 12.37L49.8851 13.566C48.3381 13.332 46.3101 12.253 45.7251 10.927ZM49.7421 19.715H41.8251V16.413H43.3461V18.519H49.7421V19.715Z" fill="#999999"/>
</svg>
