<svg width="24" height="24" viewBox="0 0 24 24" fill="none" xmlns="http://www.w3.org/2000/svg">
<path fill-rule="evenodd" clip-rule="evenodd" d="M13.7099 15.7219C12.848 16.2349 11.841 16.5296 10.7652 16.5296C7.58115 16.5296 5 13.9485 5 10.7648C5 7.58097 7.58115 5 10.7652 5C13.9492 5 16.5303 7.58097 16.5303 10.7648C16.5303 11.841 16.2353 12.8484 15.7219 13.7105L18.5833 16.5718C19.1389 17.1272 19.1389 18.0279 18.5833 18.5834C18.0278 19.1389 17.1271 19.1389 16.5715 18.5834L13.7099 15.7219ZM14.3131 10.7602C14.3131 12.7194 12.7248 14.3076 10.7654 14.3076C8.80598 14.3076 7.21758 12.7194 7.21758 10.7602C7.21758 8.80085 8.80598 7.21256 10.7654 7.21256C12.7248 7.21256 14.3131 8.80085 14.3131 10.7602Z" fill="#888888"/>
</svg>
