<svg width="29" height="20" viewBox="0 0 29 20" fill="none" xmlns="http://www.w3.org/2000/svg">
<rect width="29" height="20" rx="2" fill="#FF3E3E"/>
<path d="M14.236 8.324H12.712V11.972H11.296V4.256H12.712V7.172H14.236V8.324ZM12.964 14.636H5.86V11.228H7.264V13.508H12.964V14.636ZM6.1 9.056C7.66 9.056 9.184 8.972 10.288 8.744C10.336 9.104 10.408 9.464 10.48 9.812C9.472 10.052 7.72 10.184 5.752 10.184H4.708V5.132H9.472V6.236H6.1V9.056ZM23.2568 8.312H20.2208V9.368H24.3728V10.496H14.7128V9.368H18.8168V8.312H15.9968V4.508H23.1608V5.624H17.4008V7.196H23.2568V8.312ZM15.8408 11.324H23.1248V14.96H21.7328V12.44H15.8408V11.324Z" fill="white"/>
</svg>
